<?xml version="1.0" standalone="no"?>
<!DOCTYPE svg PUBLIC "-//W3C//DTD SVG 20010904//EN"
 "http://www.w3.org/TR/2001/REC-SVG-20010904/DTD/svg10.dtd">
<svg version="1.0" xmlns="http://www.w3.org/2000/svg"
 width="260.000000pt" height="260.000000pt" viewBox="0 0 260.000000 260.000000"
 preserveAspectRatio="xMidYMid meet">
<metadata>
Created by potrace 1.11, written by Peter Selinger 2001-2013
</metadata>
<g transform="translate(0.000000,260.000000) scale(0.100000,-0.100000)"
fill="#000000" stroke="none">
<path d="M405 2581 c-38 -10 -91 -27 -116 -39 -113 -52 -216 -159 -261 -271
l-23 -56 -2 -895 c-2 -979 -3 -949 57 -1054 52 -92 156 -181 257 -220 114 -46
113 -45 1166 -46 1079 0 1034 -2 1086 54 45 49 42 180 -7 238 l-27 32 0 173 0
173 27 25 c15 14 30 36 33 48 3 12 4 419 3 904 l-3 881 -24 26 c-14 14 -41 31
-60 36 -23 6 -399 10 -1036 9 -916 -1 -1006 -2 -1070 -18z m1009 -348 c3 -10
8 -90 12 -178 3 -88 8 -182 9 -210 2 -27 4 -78 5 -112 2 -35 5 -63 7 -63 3 0
25 12 49 26 34 20 48 24 57 15 12 -12 10 -16 -31 -78 -13 -22 -13 -23 9 -23
41 0 99 -20 99 -34 0 -17 -13 -22 -73 -31 l-46 -7 25 -39 c39 -63 26 -84 -32
-50 -19 12 -39 21 -43 21 -4 0 -7 -19 -5 -42 1 -24 2 -60 3 -82 1 -36 2 -38
29 -31 204 49 292 270 170 427 l-29 38 35 31 c52 45 98 144 98 211 0 53 -24
140 -46 167 -17 22 42 -11 99 -55 57 -43 96 -83 135 -140 l29 -41 -77 -68
c-86 -76 -101 -97 -82 -120 27 -33 65 -16 154 68 16 15 32 27 37 27 10 0 36
-120 31 -145 -2 -11 -54 -58 -118 -108 -63 -48 -114 -93 -114 -100 0 -19 13
-34 36 -41 20 -6 52 13 149 89 31 24 29 3 -5 -68 -33 -66 -54 -96 -118 -160
-136 -140 -364 -212 -578 -182 -219 31 -403 156 -493 335 -23 46 -39 85 -37
87 2 3 36 -19 75 -48 77 -58 98 -65 123 -43 26 24 13 47 -54 96 -13 10 -54 42
-93 71 l-70 54 3 49 c2 49 19 114 29 114 2 0 33 -25 66 -55 50 -45 68 -55 92
-53 24 2 31 8 33 29 2 21 -10 37 -69 90 -39 35 -76 67 -82 71 -14 8 32 79 88
135 40 41 139 113 155 113 4 0 -3 -25 -15 -57 -44 -106 -13 -237 74 -316 l38
-34 -28 -34 c-53 -64 -72 -158 -49 -241 17 -61 81 -132 151 -167 93 -46 94
-45 98 50 l2 81 -35 -21 c-58 -36 -73 -11 -31 51 l25 36 -43 7 c-64 10 -77 15
-77 30 0 14 9 18 83 33 l38 7 -26 34 c-43 59 -27 86 31 52 19 -12 38 -21 42
-21 4 0 8 19 8 43 1 37 12 276 19 412 2 28 4 65 4 83 1 25 5 32 20 32 11 0 22
-8 25 -17z m796 -1746 l0 -162 -852 1 c-648 1 -860 4 -883 13 -135 55 -136
231 0 292 38 18 87 19 888 19 l847 0 0 -163z"/>
</g>
</svg>
